REM MD5 651e18fa7d0aac76831c16a108f4341f
FILE "Official U.S. PlayStation Magazine Demo Disc 22 (USA).bin" BINARY
  TRACK 01 MODE2/2352
    INDEX 01 00:00:00
  TRACK 02 AUDIO
    INDEX 00 39:23:61
    INDEX 01 39:25:61
  TRACK 03 AUDIO
    INDEX 00 40:25:35
    INDEX 01 40:27:35
REM LEADOUT 40:33:31
